HIERARCHY
ROOT Bip001_Pelvis
{
  OFFSET -22.4848 91.2454 47.947
  CHANNELS 6 Xposition Yposition Zposition Zrotation Xrotation Yrotation
  JOINT Bip001_Spine
  {
    OFFSET 1.44608e-005 10.4157 -0.0118244
    CHANNELS 3 Zrotation Xrotation Yrotation
    JOINT Bip001_L_Thigh
    {
      OFFSET 11.2582 -10.4157 0.0118432
      CHANNELS 3 Zrotation Xrotation Yrotation
      JOINT Bip001_L_Calf
      {
        OFFSET -0.720717 -44.8687 0.366937
        CHANNELS 3 Zrotation Xrotation Yrotation
        JOINT Bip001_L_Foot
        {
          OFFSET -0.664439 -41.3745 -3.62995
          CHANNELS 3 Zrotation Xrotation Yrotation
          JOINT Bip001_L_Toe0
          {
            OFFSET 0.0541048 -10.4146 13.4033
            CHANNELS 3 Zrotation Xrotation Yrotation
            End Site
            {
              OFFSET -1.04503e-005 0 7.70137
            }
          }
        }
      }
    }
    JOINT Bip001_R_Thigh
    {
      OFFSET -11.2582 -10.4156 0.0118122
      CHANNELS 3 Zrotation Xrotation Yrotation
      JOINT Bip001_R_Calf
      {
        OFFSET 0.72059 -44.8687 0.36676
        CHANNELS 3 Zrotation Xrotation Yrotation
        JOINT Bip001_R_Foot
        {
          OFFSET 0.664321 -41.3745 -3.62979
          CHANNELS 3 Zrotation Xrotation Yrotation
          JOINT Bip001_R_Toe0
          {
            OFFSET -0.05417 -10.4146 13.4033
            CHANNELS 3 Zrotation Xrotation Yrotation
            End Site
            {
              OFFSET -1.04873e-005 0 7.70137
            }
          }
        }
      }
    }
    JOINT Bip001_Spine1
    {
      OFFSET 1.90638e-005 14.8539 1.10727
      CHANNELS 3 Zrotation Xrotation Yrotation
      JOINT Bip001_Spine2
      {
        OFFSET 2.28934e-005 14.7848 -1.7233
        CHANNELS 3 Zrotation Xrotation Yrotation
        JOINT Bip001_Neck
        {
          OFFSET 2.24514e-005 15.6905 -0.498826
          CHANNELS 3 Zrotation Xrotation Yrotation
          JOINT Bip001_L_Clavicle
          {
            OFFSET 6.17691 -0.000591152 0.00852867
            CHANNELS 3 Zrotation Xrotation Yrotation
            JOINT Bip001_L_UpperArm
            {
              OFFSET 11.773 -0.0611878 0.00197697
              CHANNELS 3 Zrotation Xrotation Yrotation
              JOINT Bip001_L_Forearm
              {
                OFFSET 26.4515 0.0817566 -2.1958
                CHANNELS 3 Zrotation Xrotation Yrotation
                JOINT Bip001_L_Hand
                {
                  OFFSET 32.8678 0.156744 1.67112
                  CHANNELS 3 Zrotation Xrotation Yrotation
                  JOINT Bip001_L_Finger0
                  {
                    OFFSET 6.16269 -2.25227 6.0167
                    CHANNELS 3 Zrotation Xrotation Yrotation
                    End Site
                    {
                      OFFSET 4.305 -1.46663 0.618144
                    }
                  }
                  JOINT Bip001_L_Finger1
                  {
                    OFFSET 11.2958 -0.718377 -0.201962
                    CHANNELS 3 Zrotation Xrotation Yrotation
                    End Site
                    {
                      OFFSET 6.31953 -0.405165 -0.0802297
                    }
                  }
                }
              }
            }
          }
          JOINT Bip001_R_Clavicle
          {
            OFFSET -6.17691 -0.000574027 0.00851165
            CHANNELS 3 Zrotation Xrotation Yrotation
            JOINT Bip001_R_UpperArm
            {
              OFFSET -11.773 -0.0611516 0.00194365
              CHANNELS 3 Zrotation Xrotation Yrotation
              JOINT Bip001_R_Forearm
              {
                OFFSET -26.4514 0.0822336 -2.19736
                CHANNELS 3 Zrotation Xrotation Yrotation
                JOINT Bip001_R_Hand
                {
                  OFFSET -32.8677 0.156816 1.67144
                  CHANNELS 3 Zrotation Xrotation Yrotation
                  JOINT Bip001_R_Finger0
                  {
                    OFFSET -6.16269 -2.25224 6.01673
                    CHANNELS 3 Zrotation Xrotation Yrotation
                    End Site
                    {
                      OFFSET -4.30499 -1.46661 0.618137
                    }
                  }
                  JOINT Bip001_R_Finger1
                  {
                    OFFSET -11.2957 -0.718342 -0.201995
                    CHANNELS 3 Zrotation Xrotation Yrotation
                    End Site
                    {
                      OFFSET -6.31951 -0.405145 -0.080248
                    }
                  }
                }
              }
            }
          }
          JOINT Bip001_Head
          {
            OFFSET 1.11782e-005 11.4912 2.09908
            CHANNELS 3 Zrotation Xrotation Yrotation
            End Site
            {
              OFFSET 2.95144e-005 21.2823 -2.83069e-005
            }
          }
        }
      }
    }
  }
}
MOTION
Frames:	14
Frame Time:	0.0333333
-3.62722 90.8144 31.9647 -9.28852 4.29869 -112.773 0.121575 2.59311 -2.71949 9.00187 -2.66039 10.0546 0.18659 12.3888 1.71188 -4.08443 9.7516 -20.381 -1.05507e-006 1.5566e-006 8.83188e-007 1.45258 -11.0018 7.08259 -0.19331 38.3339 0.447204 2.8511 -14.6513 17.2547 1.16613e-007 -1.28186e-006 -6.34891e-007 0.366869 5.17768 -5.45281 0.366865 5.17768 -5.45285 -2.91074 11.0609 -19.8623 -9.21937 -16.3022 27.2979 -41.1569 20.3796 -45.4912 -5.13239 3.53258 -65.4754 21.7572 -20.5421 -18.2968 -6.36111e-015 3.18055e-015 -1.59028e-015 -3.18055e-015 1.59028e-015 -3.18055e-015 12.0703 -9.97212 -1.94565 67.8865 -24.32 35.2199 5.1304 7.98093 110.997 -13.7376 -17.469 26.3298 3.97569e-016 0 -0 3.97569e-016 0 7.95139e-016 4.54954 -2.21774 -21.8884 
-4.86398 90.5604 33.4252 -8.90057 5.09133 -115.306 0.191425 2.65714 -2.63549 9.30906 -1.34965 10.238 -0.110396 12.095 -1.55665 -2.38543 12.0027 -28.7547 -1.05507e-006 1.5566e-006 8.83188e-007 0.374233 -11.1996 6.98934 -0.148385 38.3037 0.820353 2.23006 -14.2461 18.2174 1.16613e-007 -1.28186e-006 -6.34891e-007 0.505983 5.3027 -5.28815 0.50599 5.30268 -5.28816 -2.77939 11.31 -19.3888 -9.52372 -16.5428 26.7459 -42.0677 19.216 -45.1509 -5.17421 3.6349 -66.5736 20.6501 -21.1306 -18.1545 -6.36111e-015 3.18055e-015 -4.77083e-015 -6.36111e-015 1.59028e-015 -3.18055e-015 12.5575 -10.2228 -2.22661 67.3952 -24.333 35.7355 5.2159 7.76744 108.697 -14.0373 -18.7695 25.157 -0 -3.18055e-015 -0 -3.97569e-016 3.18056e-015 -0 4.46641 -2.31745 -21.1732 
-6.29435 90.1936 34.9133 -8.49233 5.88624 -117.647 0.299131 2.71079 -2.59069 9.49892 -2.21801 8.74119 -0.352797 16.6533 -4.26049 -0.385186 11.7728 -36.9692 -1.05507e-006 1.5566e-006 8.83188e-007 -0.748679 -11.3988 7.05394 -0.114256 38.4239 1.1206 1.63482 -14.1254 18.8241 1.16613e-007 -1.28186e-006 -6.34891e-007 0.721969 5.40529 -5.20438 0.72198 5.4053 -5.20436 -2.93489 11.6603 -18.8519 -9.67007 -16.855 26.2566 -42.9551 18.1222 -44.4785 -5.21117 3.73047 -67.5917 20.7227 -22.0093 -17.4755 3.18055e-015 -1.59028e-015 -3.18055e-015 9.54166e-015 -1.59028e-015 -3.18055e-015 12.8056 -10.5554 -2.36147 66.4955 -24.3149 35.8096 5.29621 7.54013 106.288 -14.4648 -20.4022 23.4752 2.38542e-015 3.18055e-015 -1.59028e-015 1.59028e-015 0 -1.59028e-015 4.36008 -2.30482 -20.5889 
-7.83152 89.9425 36.2974 -8.29734 6.72612 -120.248 0.381545 2.79156 -2.49333 7.94244 -3.00778 3.82199 -0.223177 21.3737 -2.91318 -0.0417784 10.2607 -38.9212 -1.05507e-006 1.5566e-006 8.83188e-007 -1.8968 -11.3232 7.34178 -0.0485004 38.269 1.64797 1.12744 -13.9318 19.3596 1.16613e-007 -1.28186e-006 -6.34891e-007 0.886018 5.56385 -5.01413 0.886018 5.56384 -5.01413 -2.87725 11.7251 -18.566 -9.88143 -16.9278 25.9777 -43.6027 17.3284 -43.8866 -5.23798 3.80314 -68.3617 19.4061 -22.2168 -17.3431 9.54166e-015 -3.18055e-015 1.59028e-015 6.36111e-015 -4.77083e-015 1.59028e-015 12.5023 -10.6824 -2.24793 65.4668 -24.6687 35.1495 5.36408 7.31905 103.977 -14.7999 -22.6359 21.7437 7.95139e-016 -6.36111e-015 -0 0 3.18056e-015 -0 4.15416 -2.51817 -20.2172 
-9.4136 89.9537 37.4942 -8.3383 7.18744 -123.253 0.415598 2.88337 -2.28246 4.95368 -2.23726 -2.18601 0.392895 22.3065 3.36026 -1.80244 9.61798 -35.4103 -1.05507e-006 1.5566e-006 8.83188e-007 -3.41128 -11.0681 7.9117 -0.00593726 37.519 1.91744 0.590425 -13.378 19.8214 1.16613e-007 -1.28186e-006 -6.34891e-007 0.947793 5.74781 -4.59397 0.947791 5.74782 -4.59397 -2.73457 11.7915 -18.4026 -10.0617 -16.9818 25.6786 -43.671 17.1309 -43.3767 -5.25553 3.85228 -68.88 17.9133 -22.549 -17.7311 3.18055e-015 1.59028e-015 9.54166e-015 6.36111e-015 1.59028e-015 1.11319e-014 12.146 -10.8398 -2.23594 64.014 -24.7609 33.7795 5.41582 7.12418 101.963 -15.2849 -25.4121 20.0664 5.29669e-031 -4.77083e-015 6.36111e-015 -0 0 6.36111e-015 4.03655 -2.57538 -19.7466 
-10.8972 90.0011 38.7333 -8.10133 7.16848 -126.096 0.38512 2.92869 -2.04422 2.6457 -1.78661 -4.20815 0.482934 22.5124 4.28643 -3.58829 9.20538 -30.4737 -1.05507e-006 1.5566e-006 8.83188e-007 -5.03801 -11.4057 8.58686 -0.0901752 36.8484 1.12733 0.670576 -12.9114 20.1851 1.16613e-007 -1.28186e-006 -6.34891e-007 0.876433 5.84169 -4.11607 0.876431 5.84169 -4.11608 -2.76162 11.994 -18.094 -10.2542 -17.1487 25.192 -43.4867 16.9089 -42.5392 -5.26755 3.88685 -69.2433 16.4116 -22.9277 -18.1062 3.18055e-015 -1.59028e-015 3.18055e-015 3.18055e-015 0 -0 12.3435 -11.0612 -2.52016 61.7279 -23.9761 32.1039 5.45659 6.94698 100.147 -15.9058 -27.8562 18.6162 -7.95139e-016 0 -0 -7.95139e-016 1.59028e-015 -3.18055e-015 3.75048 -2.73944 -19.0548 
-12.3193 89.9989 40.0428 -7.71654 6.63827 -128.65 0.32471 2.92924 -1.84041 0.905986 -1.72822 -2.82659 0.590597 22.0982 5.46402 -4.13164 9.09158 -28.8129 -1.05507e-006 1.5566e-006 8.83188e-007 -7.04615 -12.3684 8.78404 -0.293341 36.555 -0.650214 1.50547 -12.5893 20.6828 1.16613e-007 -1.28186e-006 -6.34891e-007 0.745039 5.84651 -3.70459 0.74504 5.84651 -3.70463 -2.70854 12.0923 -17.709 -10.5764 -17.2316 24.6806 -43.3452 16.4719 -41.4017 -5.27899 3.92048 -69.5923 16.2681 -22.4385 -18.0757 -8.82781e-032 1.59028e-015 3.18055e-015 3.18055e-015 3.18056e-015 3.18055e-015 12.4881 -11.2065 -2.81395 58.3227 -22.6394 29.845 5.49332 6.75922 98.2376 -16.8503 -29.8726 17.627 7.95139e-016 3.18055e-015 1.27222e-014 -0 0 6.36111e-015 3.28533 -2.93735 -18.3765 
-13.6451 89.9073 41.3837 -7.73286 6.20347 -130.799 0.205647 2.86356 -1.67417 -0.4434 -1.50011 0.172361 0.384868 21.9976 3.33635 -3.90587 8.9603 -28.5106 -1.05507e-006 1.5566e-006 8.83188e-007 -9.29647 -12.9902 8.43013 -0.616263 36.4256 -3.46957 2.76858 -12.0538 20.9859 1.16613e-007 -1.28186e-006 -6.34891e-007 0.496033 5.71985 -3.36503 0.496019 5.71984 -3.365 -2.51989 11.9994 -17.3611 -11.039 -17.1606 24.2261 -43.1293 15.9264 -40.1945 -5.28917 3.95084 -69.9371 15.8311 -22.1781 -18.0653 3.18055e-015 -1.59028e-015 -4.77083e-015 3.18055e-015 -3.18056e-015 -6.36111e-015 12.5634 -11.2337 -3.41437 55.6208 -20.6863 27.5425 5.52339 6.5726 96.3512 -17.0224 -30.4991 17.4375 -8.82781e-032 -1.59028e-015 -3.18055e-015 -7.95139e-016 -1.59028e-015 -6.36111e-015 2.97343 -3.42539 -17.6336 
-14.9066 89.8563 42.6299 -7.89825 6.02 -132.935 0.0597183 2.78075 -1.52153 -1.4748 -0.798643 3.83763 0.150083 21.4895 0.958343 -3.0786 8.90722 -29.0456 -1.05507e-006 1.5566e-006 8.83188e-007 -11.3348 -13.2417 8.10772 -0.918206 36.1027 -6.19864 4.09245 -11.333 20.4097 1.16613e-007 -1.28186e-006 -6.34891e-007 0.19378 5.55895 -3.05152 0.193774 5.55895 -3.05155 -2.3433 11.7249 -17.0499 -11.4733 -16.8948 23.8067 -42.8721 15.4201 -38.9764 -5.29308 3.965 -70.1065 15.4492 -22.4477 -18.1245 9.54166e-015 -4.77083e-015 1.59028e-015 9.54166e-015 -1.59028e-015 -0 12.3467 -11.1096 -3.96529 53.0023 -18.3933 24.9545 5.55245 6.33558 93.9694 -17.6479 -30.6155 16.9248 1.59028e-015 0 -0 7.95139e-016 0 -3.18055e-015 2.58291 -4.1776 -16.7607 
-16.0747 89.9469 43.7126 -8.14499 6.05036 -135.467 -0.131946 2.76065 -1.44645 -2.80542 0.500955 5.8662 0.211309 19.9063 1.70633 -2.80973 9.06613 -30.2319 -1.05507e-006 1.5566e-006 8.83188e-007 -13.1334 -13.3923 7.71887 -1.02919 35.4812 -7.33792 4.73165 -10.8711 18.8049 1.16613e-007 -1.28186e-006 -6.34891e-007 -0.194305 5.52378 -2.89162 -0.194309 5.52378 -2.89162 -2.33339 11.4665 -16.6314 -11.8045 -16.5972 23.3365 -42.6841 15.0557 -37.715 -5.293 3.9622 -70.0783 14.6217 -23.2756 -18.4766 3.18055e-015 0 -0 3.18055e-015 3.18056e-015 3.18055e-015 12.2806 -10.9577 -4.52075 49.9462 -15.0708 22.9611 5.57679 5.98818 90.4979 -18.4277 -30.2516 15.7395 -1.76556e-031 1.59028e-015 6.36111e-015 7.95139e-016 2.38542e-015 6.36111e-015 2.22026 -4.89438 -15.8659 
-17.0732 90.166 44.5874 -8.09993 6.43518 -138.649 -0.231203 2.73044 -1.36759 -4.02573 2.23138 7.16651 0.360728 17.484 3.46662 -2.89487 9.38193 -30.9799 -1.05507e-006 1.5566e-006 8.83188e-007 -14.2204 -13.6685 7.72904 -0.94967 34.6324 -6.80503 4.66549 -10.7767 16.2606 1.16613e-007 -1.28186e-006 -6.34891e-007 -0.397732 5.46414 -2.72879 -0.39774 5.46416 -2.72879 -2.36139 11.2484 -16.1162 -12.1013 -16.3048 22.7802 -42.8103 14.7044 -36.3219 -5.28631 3.94215 -69.8391 13.4809 -23.5016 -18.712 8.82781e-032 -1.59028e-015 3.18055e-015 -0 -3.18056e-015 -0 12.1025 -10.8498 -5.01596 46.5305 -11.0086 21.0171 5.57845 5.58851 86.5149 -18.7261 -30.8608 14.2158 -3.97569e-016 0 -9.54166e-015 -3.97569e-016 1.98785e-016 -1.27222e-014 1.80687 -5.18318 -14.9572 
-18.0504 90.3501 45.2963 -7.94888 6.76616 -142.055 -0.346665 2.74859 -1.32162 -5.55295 3.76319 6.61264 0.508527 14.9538 5.26075 -3.63637 9.79536 -29.672 -1.05507e-006 1.5566e-006 8.83188e-007 -15.3267 -14.293 7.17838 -0.799665 33.8521 -5.58599 4.33067 -10.6467 14.0246 1.16613e-007 -1.28186e-006 -6.34891e-007 -0.630749 5.50451 -2.63113 -0.630769 5.50451 -2.63111 -2.40717 11.0998 -15.5463 -12.3867 -16.0729 22.2187 -43.0593 14.507 -34.861 -5.27298 3.90265 -69.4098 12.8929 -24.2696 -19.0183 0 1.59028e-015 -0 -0 0 3.18055e-015 11.8891 -10.7897 -5.33896 42.8899 -5.73839 20.1663 5.53651 5.04617 81.0973 -20.1922 -33.096 11.6868 -9.93923e-017 9.93923e-017 3.18055e-015 -1.98785e-016 -9.93924e-017 3.18055e-015 1.22012 -5.25501 -14.1326 
-18.9787 90.568 45.9063 -7.92637 7.0208 -144.81 -0.460962 2.79604 -1.23882 -7.0842 5.53242 5.38721 0.6229 11.5787 6.77601 -4.45575 10.5098 -27.3766 -1.05507e-006 1.5566e-006 8.83188e-007 -16.4647 -14.5376 6.41143 -0.708899 32.7727 -4.9415 4.10653 -10.2242 12.2716 1.16613e-007 -1.28186e-006 -6.34891e-007 -0.862761 5.60134 -2.45958 -0.862744 5.60133 -2.45959 -2.49788 10.9479 -14.9316 -12.7327 -15.8508 21.6351 -43.3218 14.3339 -33.4186 -5.25655 3.85513 -68.9101 12.563 -24.7136 -19.1636 3.18055e-015 0 -0 3.18055e-015 0 -0 11.8733 -10.6951 -5.6399 38.7685 1.0409 20.8316 5.40902 4.36426 74.1929 -22.9837 -36.783 8.39141 7.95139e-016 -9.93923e-016 -0 7.95139e-016 -7.95139e-016 -3.18055e-015 0.93255 -5.09022 -13.54 
-19.7904 90.7843 46.4159 -7.98081 6.79609 -147.246 -0.514345 2.83742 -1.0976 -8.63593 6.02322 4.27133 0.698186 9.89645 7.72237 -5.39565 10.0247 -24.711 -1.05507e-006 1.5566e-006 8.83188e-007 -17.656 -15.1534 6.07493 -0.670239 31.9391 -4.70683 4.12467 -9.80665 10.6378 1.16613e-007 -1.28186e-006 -6.34891e-007 -0.975932 5.68414 -2.17369 -0.975934 5.68414 -2.17367 -2.543 10.7351 -14.3397 -13.1063 -15.5702 21.0768 -43.6157 14.4445 -31.9766 -5.24645 3.8266 -68.6094 12.8649 -26.4409 -19.1741 -3.18055e-015 -3.18055e-015 -0 -0 -4.77083e-015 -0 12.1561 -10.5139 -5.90964 34.3048 9.05321 23.268 5.13937 3.54972 65.6574 -26.6722 -40.2713 3.84655 7.95139e-016 2.38542e-015 -1.59028e-015 7.95139e-016 2.98177e-016 -2.38542e-015 0.771724 -5.03012 -13.16 
